<?xml version="1.0" encoding="utf-8"?>
<!-- Generator: Adobe Illustrator 22.1.0, SVG Export Plug-In . SVG Version: 6.00 Build 0)  -->
<svg version="1.1" id="graph-light" xmlns="http://www.w3.org/2000/svg" xmlns:xlink="http://www.w3.org/1999/xlink" x="0px"
	 y="0px" viewBox="0 0 1020 259" enable-background="new 0 0 1020 259" xml:space="preserve">
<polygon opacity="0.2" fill="#D1D1D1" enable-background="new    " points="0,125 179,11 371,128 473,85 644,141 938,69 1020,125 
	1020,207 0,207 "/>
<path fill="none" stroke="#FFFFFF" stroke-miterlimit="10" d="M1018.8193,124.208"/>
<polyline fill="none" stroke="#D1D1D1" stroke-miterlimit="10" points="1.9892,123.7331 179,11 371,128 473,85 644,141 938,70 
	1018.8193,124.208 "/>
<path fill="none" stroke="#FFFFFF" stroke-miterlimit="10" d="M1.9892,123.7331"/>
<polygon fill="#FFFFFF" points="0,177 179.5,51.5 371,180 473,137 644,193 938,122 1020,178 1020,259 0,259 "/>
<circle fill="#FFFFFF" stroke="#D1D1D1" stroke-miterlimit="10" cx="939" cy="122.3333" r="10.5"/>
<circle fill="#FFFFFF" stroke="#D1D1D1" stroke-miterlimit="10" cx="644" cy="193" r="10.5"/>
<circle fill="#FFFFFF" stroke="#D1D1D1" stroke-miterlimit="10" cx="474.3333" cy="137.6667" r="10.5"/>
<circle fill="#FFFFFF" stroke="#D1D1D1" stroke-miterlimit="10" cx="371" cy="178" r="10.5"/>
<circle fill="#FFFFFF" stroke="#D1D1D1" stroke-miterlimit="10" cx="179" cy="57" r="10.5"/>
<path fill="#FFFFFF" stroke="#D1D1D1" stroke-miterlimit="10" d="M0,167.5c5.799,0,10.5,4.701,10.5,10.5S5.799,188.5,0,188.5"/>
<circle fill="#FFFFFF" stroke="#D1D1D1" stroke-miterlimit="10" cx="939" cy="69" r="10.5"/>
<circle fill="#FFFFFF" stroke="#D1D1D1" stroke-miterlimit="10" cx="644" cy="139" r="10.5"/>
<circle fill="#FFFFFF" stroke="#D1D1D1" stroke-miterlimit="10" cx="473.6667" cy="84.8333" r="10.5"/>
<circle fill="#FFFFFF" stroke="#D1D1D1" stroke-miterlimit="10" cx="371" cy="126.5" r="10.5"/>
<circle fill="#FFFFFF" stroke="#D1D1D1" stroke-miterlimit="10" cx="179" cy="11" r="10.5"/>
<path fill="#FFFFFF" stroke="#D1D1D1" stroke-miterlimit="10" d="M0,112.7c5.799,0,10.5,4.701,10.5,10.5S5.799,133.7,0,133.7"/>
<path fill="#FFFFFF" stroke="#D1D1D1" stroke-miterlimit="10" d="M1020,188.5c-5.799,0-10.5-4.701-10.5-10.5s4.701-10.5,10.5-10.5"
	/>
<path fill="#FFFFFF" stroke="#D1D1D1" stroke-miterlimit="10" d="M1020,133.7c-5.799,0-10.5-4.701-10.5-10.5s4.701-10.5,10.5-10.5"
	/>
</svg>
