<?xml version="1.0" encoding="utf-8"?>
<!-- Generator: Adobe Illustrator 22.1.0, SVG Export Plug-In . SVG Version: 6.00 Build 0)  -->
<svg version="1.1" id="graph" xmlns="http://www.w3.org/2000/svg" xmlns:xlink="http://www.w3.org/1999/xlink" x="0px" y="0px"
	 viewBox="0 0 1020 259" style="enable-background:new 0 0 1020 259;" xml:space="preserve">
<style type="text/css">
	.st0{opacity:0.2;fill:#D1D1D1;enable-background:new    ;}
	.st1{fill:none;stroke:#FFFFFF;stroke-miterlimit:10;}
	.st2{fill:none;stroke:#D1D1D1;stroke-miterlimit:10;}
	.st3{fill:#0075D6;}
	.st4{fill:#FFFFFF;stroke:#D1D1D1;stroke-miterlimit:10;}
</style>
<polygon class="st0" points="0,125 179,11 371,128 473,85 644,141 938,69 1020,125 1020,207 0,207 "/>
<path class="st1" d="M1018.8,124.2"/>
<polyline class="st2" points="2,123.7 179,11 371,128 473,85 644,141 938,70 1018.8,124.2 "/>
<path class="st1" d="M2,123.7"/>
<polygon class="st3" points="0,177 179.5,51.5 371,180 473,137 644,193 938,122 1020,178 1020,259 0,259 "/>
<circle class="st4" cx="938.9" cy="122" r="10.5"/>
<circle class="st4" cx="644" cy="193" r="10.5"/>
<circle class="st4" cx="473" cy="137.5" r="10.5"/>
<circle class="st4" cx="371" cy="178" r="10.5"/>
<circle class="st4" cx="179" cy="57" r="10.5"/>
<path class="st4" d="M0,167.5c5.8,0,10.5,4.7,10.5,10.5S5.8,188.5,0,188.5"/>
<circle class="st4" cx="938.9" cy="70" r="10.5"/>
<circle class="st4" cx="644" cy="139" r="10.5"/>
<circle class="st4" cx="474.5" cy="85.5" r="10.5"/>
<circle class="st4" cx="371" cy="126.5" r="10.5"/>
<circle class="st4" cx="179" cy="13.5" r="10.5"/>
<path class="st4" d="M0,112.7c5.8,0,10.5,4.7,10.5,10.5S5.8,133.7,0,133.7"/>
<path class="st4" d="M1020,188.5c-5.8,0-10.5-4.7-10.5-10.5s4.7-10.5,10.5-10.5"/>
<path class="st4" d="M1020,133.7c-5.8,0-10.5-4.7-10.5-10.5s4.7-10.5,10.5-10.5"/>
</svg>
