<?xml version="1.0" encoding="utf-8"?>
<!-- Generator: Adobe Illustrator 22.1.0, SVG Export Plug-In . SVG Version: 6.00 Build 0)  -->
<svg version="1.1" id="logo-light" xmlns="http://www.w3.org/2000/svg" xmlns:xlink="http://www.w3.org/1999/xlink" x="0px" y="0px"
	 viewBox="0 0 340.2733 71.9453" enable-background="new 0 0 340.2733 71.9453" xml:space="preserve">
<g>
	<path fill="#FFFFFF" stroke="#FFFFFF" stroke-miterlimit="10" d="M6.3008,56.082V24.3711H0.5V18.043h5.8008v-4.4297
		c0-4.1953,1.1426-7.4297,3.4277-9.7031S15.2183,0.5,19.3438,0.5c0.8203,0,1.6523,0.0645,2.4961,0.1934s1.793,0.3105,2.8477,0.5449
		l-0.8789,6.6094c-0.4692-0.0938-0.9902-0.1758-1.5645-0.2461c-0.5747-0.0703-1.1899-0.1055-1.8457-0.1055
		c-1.8516,0-3.2402,0.5273-4.166,1.582c-0.9263,1.0547-1.3887,2.5664-1.3887,4.5352v4.4297h7.7344v6.3281h-7.7344V56.082H6.3008z"/>
	<path fill="#FFFFFF" stroke="#FFFFFF" stroke-miterlimit="10" d="M27.2188,36.7109c0-5.6484,1.5469-10.2891,4.6406-13.9219
		c3.1406-3.6328,7.3945-5.4492,12.7617-5.4492c5.4609,0,9.7383,1.8164,12.832,5.4492c3.1172,3.6094,4.6758,8.25,4.6758,13.9219
		v0.7383c0,5.7188-1.5586,10.3828-4.6758,13.9922c-3.0938,3.5859-7.3477,5.3789-12.7617,5.3789
		c-5.4375,0-9.7148-1.8047-12.832-5.4141c-3.0938-3.6094-4.6406-8.2617-4.6406-13.957V36.7109z M35.7617,37.4307
		c0,3.6982,0.7266,6.7178,2.1797,9.0586c1.4297,2.3174,3.6797,3.4756,6.75,3.4756c2.9766,0,5.2031-1.1582,6.6797-3.4756
		c1.5-2.3408,2.25-5.3604,2.25-9.0586v-0.7363c0-3.6279-0.75-6.6123-2.25-8.9531c-1.4766-2.3643-3.7266-3.5459-6.75-3.5459
		c-2.9766,0-5.2031,1.1816-6.6797,3.5459c-1.4531,2.3643-2.1797,5.3477-2.1797,8.9531V37.4307z"/>
	<path fill="#FFFFFF" stroke="#FFFFFF" stroke-miterlimit="10" d="M82.3086,31.0859l7.0312-13.043h9.8086L87.1953,36.8516
		L99.5,56.082h-9.7031l-7.3477-13.3594L75.1016,56.082h-9.7734l12.3047-19.2305L65.6797,18.043h9.7031L82.3086,31.0859z"/>
	<path fill="#FFFFFF" stroke="#FFFFFF" stroke-miterlimit="10" d="M120.7344,56.8203c-5.3906,0-9.6855-1.7637-12.8848-5.291
		s-4.7988-8.0566-4.7988-13.5879v-1.4062c0-5.5312,1.5879-10.1191,4.7637-13.7637s7.1543-5.4551,11.9355-5.4316
		c5.1328,0,9.0645,1.5527,11.7949,4.6582c2.73,3.1055,4.0952,7.2715,4.0952,12.498v5.0273h-23.73l-0.0703,0.1748
		c0.1406,3.0137,1.0254,5.4785,2.6543,7.3936c1.6289,1.916,3.8848,2.873,6.7676,2.873c2.2969,0,4.2656-0.2812,5.9062-0.8438
		s3.2227-1.3711,4.7461-2.4258l2.7417,5.6016c-1.4297,1.2725-3.3276,2.3447-5.6948,3.2158S123.8516,56.8203,120.7344,56.8203z
		 M119.75,24.1953c-2.1094,0-3.8438,0.8379-5.2031,2.5137s-2.2031,3.8027-2.5312,6.3809l0.0703,0.1758h15.082v-0.8789
		c0-2.4141-0.6152-4.3828-1.8457-5.9062S122.2344,24.1953,119.75,24.1953z"/>
	<path fill="#FFFFFF" stroke="#FFFFFF" stroke-miterlimit="10" d="M140.9839,37.5898c0-6.0469,1.3242-10.9336,3.9727-14.6602
		s6.3281-5.5898,11.0391-5.5898c2.2734,0,4.2715,0.4863,5.9941,1.459s3.1816,2.373,4.377,4.2012l0.8438-4.957h7.1016V56.082
		c0,4.8984-1.5117,8.6836-4.5352,11.3555s-7.3125,4.0078-12.8672,4.0078c-1.8516,0-3.8496-0.2637-5.9941-0.791
		s-4.084-1.2246-5.8184-2.0918l1.8281-6.7148c1.4062,0.7266,2.959,1.2949,4.6582,1.7051s3.4512,0.6152,5.2559,0.6152
		c3.0938,0,5.3555-0.6621,6.7852-1.9863s2.1445-3.3574,2.1445-6.0996v-3.9023c-1.1953,1.5234-2.6074,2.6777-4.2363,3.4629
		s-3.498,1.1777-5.6074,1.1777c-4.6641,0-8.3203-1.6992-10.9688-5.0977s-3.9727-7.8633-3.9727-13.3945V37.5898z M149.5269,38.3281
		c0,3.4922,0.6973,6.2871,2.0918,8.3848s3.5566,3.1465,6.4863,3.1465c1.8281,0,3.3691-0.3809,4.623-1.1426
		s2.2676-1.8574,3.041-3.2871V28.7656c-0.7969-1.3828-1.8223-2.4668-3.0762-3.252s-2.7598-1.1777-4.5176-1.1777
		c-2.9297,0-5.1035,1.2305-6.5215,3.6914s-2.127,5.6484-2.127,9.5625V38.3281z"/>
	<path fill="#FFFFFF" stroke="#FFFFFF" stroke-miterlimit="10" d="M202.2612,25.7422l-3.6562-0.1406
		c-1.6641,0-3.0527,0.3516-4.166,1.0547s-1.9746,1.6992-2.584,2.9883V56.082h-8.543V18.043h7.8047l0.5625,5.5195
		c0.9609-1.9453,2.1973-3.4688,3.709-4.5703s3.252-1.6523,5.2207-1.6523c0.5156,0,0.9961,0.041,1.4414,0.123
		s0.8555,0.1816,1.2305,0.2988L202.2612,25.7422z"/>
	<path fill="#FFFFFF" stroke="#FFFFFF" stroke-miterlimit="10" d="M231.1245,56.082c-0.3047-0.9609-0.5566-1.8984-0.7559-2.8125
		s-0.334-1.8281-0.4043-2.7422c-1.1719,1.7812-2.7129,3.2754-4.623,4.4824s-4.0488,1.8105-6.416,1.8105
		c-3.9609,0-7.002-1.0195-9.123-3.0586s-3.1816-4.8398-3.1816-8.4023c0-3.6797,1.4531-6.5449,4.3594-8.5957
		s6.9961-3.0762,12.2695-3.0762h6.6445v-3.3398c0-1.9922-0.5859-3.5508-1.7578-4.6758s-2.8477-1.6875-5.0273-1.6875
		c-1.9453,0-3.4922,0.4688-4.6406,1.4062s-1.7227,2.1445-1.7227,3.6211h-8.2266l-0.0352-0.2109
		c-0.1641-3,1.1777-5.6602,4.0254-7.9805s6.5566-3.4805,11.127-3.4805c4.4297,0,8.0039,1.125,10.7227,3.375
		s4.0781,5.4844,4.0781,9.7031v16.9102c0,1.5703,0.1055,3.0762,0.3164,4.5176s0.5508,2.8535,1.0195,4.2363H231.1245z
		 M220.6479,49.9648c2.1562,0,4.0957-0.5391,5.8184-1.6172s2.8652-2.3086,3.4277-3.6914v-5.625h-6.7852
		c-2.4844,0-4.4297,0.6152-5.8359,1.8457s-2.1094,2.6777-2.1094,4.3418c0,1.4531,0.4746,2.6074,1.4238,3.4629
		S218.8901,49.9648,220.6479,49.9648z"/>
	<path fill="#FFFFFF" stroke="#FFFFFF" stroke-miterlimit="10" d="M280.73,38.3281c0,5.5312-1.3008,9.9961-3.9023,13.3945
		s-6.2227,5.0977-10.8633,5.0977c-2.1562,0-4.0664-0.3867-5.7305-1.1602s-3.0938-1.9102-4.2891-3.4102v18.457h-8.543V18.043h7.207
		l0.8438,4.7812c1.2188-1.7812,2.6895-3.1406,4.4121-4.0781s3.7207-1.4062,5.9941-1.4062c4.6875,0,8.3379,1.8574,10.9512,5.5723
		s3.9199,8.6074,3.9199,14.6777V38.3281z M272.2222,37.5713c0-3.8848-0.7324-7.0615-2.1973-9.5312s-3.6504-3.7041-6.5566-3.7041
		c-1.7812,0-3.293,0.3809-4.5352,1.1406c-1.2422,0.7607-2.2383,1.8203-2.9883,3.1777v17.168c0.75,1.334,1.7461,2.3574,2.9883,3.0723
		c1.2422,0.7139,2.7773,1.0703,4.6055,1.0703c2.9062,0,5.0801-1.0703,6.5215-3.2129c1.4414-2.1406,2.1621-4.9551,2.1621-8.4434
		V37.5713z"/>
	<path fill="#FFFFFF" stroke="#FFFFFF" stroke-miterlimit="10" d="M296.6206,22.9648c1.2656-1.7812,2.8066-3.1641,4.623-4.1484
		s3.8262-1.4766,6.0293-1.4766c4.0312,0,7.1777,1.2715,9.4395,3.8145s3.3926,6.4629,3.3926,11.7598v23.168h-8.543V32.8438
		c0-3-0.5977-5.168-1.793-6.5039s-2.9883-2.0039-5.3789-2.0039c-1.6641,0-3.1582,0.3457-4.4824,1.0371s-2.4199,1.6465-3.2871,2.8652
		V56.082h-8.543V1.2383h8.543V22.9648z"/>
</g>
<circle fill="#FFFFFF" stroke="#FFFFFF" stroke-miterlimit="10" cx="333.7733" cy="50.082" r="6"/>
</svg>
